<?xml version="1.0" encoding="UTF-8"?>
<svg id="Layer_1" xmlns="http://www.w3.org/2000/svg" version="1.1" viewBox="0 0 512 648.78">
  <!-- Generator: Adobe Illustrator 30.3.0, SVG Export Plug-In . SVG Version: 2.1.3 Build 182)  -->
  <defs>
    <style>
      .st0 {
        fill: #f1e270;
      }

      .st1 {
        fill: #010101;
      }

      .st2 {
        fill: #fff;
      }

      .st3 {
        fill: #258bcb;
      }
    </style>
  </defs>
  <polygon class="st0" points="512 0 512 512 0 512 512 0"/>
  <polygon class="st2" points="0 0 512 0 256 256 0 0"/>
  <polygon class="st3" points="0 512 0 0 256 256 0 512"/>
  <path class="st1" d="M256.5,436.96l23.89-14.46c3.46,5.66,9.75,16.98,21.69,15.09,11.95-1.89,13.2-9.43,13.2-15.09v-103.75h29.24c.21,34.58.63,99.89.63,104.69,0,12.89-7.86,40.56-42.76,40.56-30.81,0-41.5-17.61-45.9-27.04h0Z"/>
  <path class="st1" d="M385.09,419.98l-24.21,13.83c3.46,5.87,11.32,17.87,25.15,24.21,15.09,6.92,38.67,8.49,55.02.94,14.47-6.68,22.95-20.12,22.95-34.9,0-17.29-4.09-32.07-33.33-44.96-23.58-10.4-31.75-13.2-31.75-23.58,0-3.14,1.89-12.89,15.41-12.89,10.69,0,16.03,8.49,17.92,12.89l23.27-15.09c-5.03-8.17-15.41-23.58-41.19-23.58s-44.64,15.41-44.64,38.67,14.85,37.2,39.61,46.53c24.21,9.12,25.15,16.16,25.15,20.44,0,4.72-3.14,15.41-19.81,15.41s-26.3-11.84-29.55-17.92Z"/>
  <g>
    <path class="st2" d="M4.73,647.04v-15.92l47.15-55.23H5.1v-15.92h68.79v15.92l-47.15,55.23h46.77v15.92H4.73Z"/>
    <path class="st2" d="M107.85,648.53c-4.98,0-9.19-1-12.63-2.99-3.44-1.99-6.08-5.08-7.9-9.27-1.83-4.19-2.74-9.6-2.74-16.23v-35.2h16.42v31.84c0,4.15.48,7.4,1.43,9.77.95,2.36,2.32,4.06,4.1,5.1,1.78,1.04,3.79,1.55,6.03,1.55,4.31.08,7.59-1.22,9.83-3.92,2.24-2.69,3.36-6.61,3.36-11.75v-32.59h16.42v62.2h-15.42l-.62-8.46c-2.07,3.15-4.66,5.6-7.77,7.34-3.11,1.74-6.61,2.61-10.51,2.61Z"/>
    <path class="st2" d="M156.36,647.04v-62.2h16.42v11.44c2.57-3.9,5.83-6.82,9.76-8.77,3.94-1.95,8.02-2.92,12.25-2.92v15.92c-3.82,0-7.4.46-10.76,1.37-3.36.91-6.08,2.41-8.15,4.48-2.07,2.07-3.11,4.73-3.11,7.96v32.72h-16.42Z"/>
    <path class="st2" d="M212.71,574.76c-2.49,0-4.69-.93-6.59-2.8-1.91-1.87-2.86-4.08-2.86-6.66s.95-4.79,2.86-6.65c1.91-1.87,4.1-2.8,6.59-2.8s4.79.93,6.65,2.8c1.87,1.87,2.8,4.08,2.8,6.65s-.93,4.79-2.8,6.66c-1.87,1.87-4.09,2.8-6.65,2.8ZM204.5,647.04v-62.2h16.42v62.2h-16.42Z"/>
    <path class="st2" d="M266.08,648.53c-6.47,0-12.23-1.39-17.29-4.17-5.06-2.78-9-6.63-11.82-11.57-2.82-4.93-4.23-10.55-4.23-16.86s1.41-12.02,4.23-16.92c2.82-4.89,6.72-8.73,11.69-11.51,4.98-2.78,10.7-4.17,17.17-4.17s11.9,1.54,17.04,4.6c5.14,3.07,8.87,7.51,11.2,13.31l-15.43,5.47c-1.16-2.4-2.97-4.33-5.41-5.78-2.45-1.45-5.16-2.18-8.15-2.18s-5.77.73-8.09,2.18c-2.32,1.45-4.15,3.46-5.47,6.03-1.33,2.57-1.99,5.56-1.99,8.96s.66,6.37,1.99,8.89c1.33,2.53,3.19,4.54,5.6,6.03,2.4,1.49,5.14,2.24,8.21,2.24s5.7-.79,8.15-2.36c2.45-1.57,4.25-3.65,5.41-6.22l15.55,5.47c-2.41,5.89-6.16,10.45-11.26,13.68-5.1,3.23-10.8,4.85-17.11,4.85Z"/>
    <path class="st2" d="M304.14,647.04v-87.08h16.42v32.84c2.07-3.07,4.64-5.41,7.71-7.03,3.07-1.62,6.51-2.43,10.32-2.43,4.98,0,9.18,1,12.63,2.99,3.44,1.99,6.07,5.08,7.9,9.27,1.82,4.19,2.74,9.6,2.74,16.23v35.2h-16.42v-31.84c0-4.23-.5-7.5-1.49-9.83-1-2.32-2.36-4-4.11-5.04-1.74-1.04-3.77-1.55-6.1-1.55-4.23-.08-7.48,1.2-9.76,3.86-2.28,2.66-3.42,6.59-3.42,11.82v32.59h-16.42Z"/>
    <path class="st2" d="M396.56,648.78c-4.23,0-7.98-.68-11.26-2.05-3.28-1.37-6.05-3.13-8.33-5.29-2.28-2.16-4.08-4.48-5.41-6.97-1.33-2.49-2.24-4.89-2.74-7.21l14.43-5.47c1.33,3.65,3.09,6.47,5.29,8.46,2.2,1.99,4.95,2.99,8.27,2.99,2.49,0,4.85-.58,7.09-1.74,2.24-1.16,4.04-3.03,5.41-5.6,1.37-2.57,2.05-5.89,2.05-9.95v-55.98h16.92v60.95c0,4.31-.79,8.19-2.36,11.63-1.58,3.44-3.79,6.37-6.65,8.77-2.86,2.41-6.22,4.25-10.08,5.54s-8.07,1.93-12.63,1.93Z"/>
    <path class="st2" d="M475.18,648.53c-4.4,0-8.5-.54-12.31-1.62-3.82-1.08-7.21-2.59-10.2-4.54-2.99-1.95-5.45-4.12-7.4-6.53-1.95-2.4-3.21-4.93-3.79-7.59l16.67-4.98c1.08,2.82,2.99,5.25,5.72,7.28,2.74,2.03,6.18,3.09,10.32,3.17,4.39.08,7.98-.87,10.76-2.86,2.78-1.99,4.17-4.56,4.17-7.71,0-2.74-1.1-5.04-3.3-6.9-2.2-1.87-5.21-3.3-9.02-4.29l-11.32-2.99c-4.23-1.08-7.96-2.72-11.2-4.91-3.23-2.2-5.76-4.91-7.59-8.15-1.83-3.23-2.74-7.01-2.74-11.32,0-8.21,2.71-14.62,8.15-19.22,5.43-4.6,13.12-6.9,23.08-6.9,5.55,0,10.43.81,14.62,2.43,4.19,1.62,7.69,3.92,10.51,6.9,2.82,2.99,4.98,6.51,6.47,10.57l-16.54,5.1c-1-2.82-2.82-5.22-5.47-7.21-2.65-1.99-6.01-2.99-10.08-2.99s-7.4.95-9.77,2.86c-2.36,1.91-3.54,4.6-3.54,8.09,0,2.74.93,4.89,2.8,6.47,1.87,1.58,4.42,2.78,7.65,3.61l11.44,2.86c7.46,1.83,13.27,5.1,17.42,9.83,4.15,4.73,6.22,9.99,6.22,15.8,0,5.14-1.24,9.64-3.73,13.5-2.49,3.86-6.1,6.86-10.82,9.02-4.73,2.16-10.45,3.23-17.17,3.23Z"/>
  </g>
</svg>